:version 1.10
:name ASF
:units
  mass 1
  length 1
  angle deg
:documentation
  ASF file generated by Kaydara
:root
  axis xyz
  order  tx ty tz rx ry rz
  position 0 0 0
  orientation 0 0 0
:bonedata
  begin
    id 1
    name abdomenDummy
    direction 1 -1.27917e-005 -1.26829e-007
    length 1.79048
    axis 0 0 0 xyz
  end
  begin
    id 2
    name abdomen
    direction 0.987238 0.159249 -9.68575e-008
    length 8.61378
    axis 2.73208e-005 5.54953e-006 9.16328 xyz
    dof rx ry rz
  end
  begin
    id 3
    name chest
    direction 0 0 0
    length 0
    axis 2.65071e-005 8.63688e-006 2.59796 xyz
    dof rx ry rz
  end
  begin
    id 4
    name neckDummyDummy
    direction 0.998972 0.0453274 -1.50742e-007
    length 9.56202
    axis 2.65071e-005 8.63688e-006 2.59796 xyz
  end
  begin
    id 5
    name neckDummy
    direction 0.99977 0.0214525 -1.61748e-007
    length 1.93574
    axis 2.62932e-005 9.26758e-006 1.22924 xyz
    dof rx ry rz
  end
  begin
    id 6
    name neck
    direction 0.99928 -0.0379406 -1.88707e-007
    length 3.70367
    axis 2.56966e-005 1.08122e-005 -2.17436 xyz
    dof rx ry rz
  end
  begin
    id 7
    name head
    direction 0.992648 -0.121037 -2.25408e-007
    length 6.35158
    axis 2.47068e-005 1.29149e-005 -6.95196 xyz
    dof rx ry rz
  end
  begin
    id 8
    name figureHair
    direction -0.86681 -0.498639 -7.83376e-008
    length 8.29884
    axis -2.7515e-005 4.48842e-006 -150.09 xyz
    dof rx ry rz
  end
  begin
    id 9
    name lCollarDummy
    direction 0.994611 0.0451299 -0.0933417
    length 9.60395
    axis 2.65071e-005 8.63688e-006 2.59796 xyz
  end
  begin
    id 10
    name lCollar
    direction 0.0384146 0.00127577 -0.999261
    length 6.95318
    axis 90.4899 87.7973 1.90202 xyz
    dof rx ry rz
  end
  begin
    id 11
    name lShldr
    direction -0.030648 0.0920515 -0.995282
    length 9.61158
    axis -161.793 84.4324 108.415 xyz
    dof rx ry rz
  end
  begin
    id 12
    name lForeArm
    direction 0.000163956 -0.0977586 -0.99521
    length 8.6068
    axis 0.134773 84.3899 -89.8525 xyz
    dof rx ry rz
  end
  begin
    id 13
    name lHand
    direction -0.0190533 -0.1444 -0.989336
    length 7.61479
    axis -7.3729 81.6249 -97.517 xyz
    dof rx ry rz
  end
  begin
    id 14
    name rCollarDummy
    direction 0.994871 0.0442627 0.0909555
    length 9.60761
    axis 2.65071e-005 8.63688e-006 2.59796 xyz
  end
  begin
    id 15
    name rCollar
    direction 0.0334251 -4.74072e-007 0.999441
    length 6.97058
    axis -178.152 -88.0845 -0.000674207 xyz
    dof rx ry rz
  end
  begin
    id 16
    name rShldr
    direction -0.026922 0.0719509 0.997045
    length 9.60913
    axis 71.2822 -85.594 110.514 xyz
    dof rx ry rz
  end
  begin
    id 17
    name rForeArm
    direction 0.00134679 -0.118986 0.992895
    length 8.57176
    axis -88.7923 -83.1659 -89.3516 xyz
    dof rx ry rz
  end
  begin
    id 18
    name rHand
    direction -0.0185183 -0.0768601 0.99687
    length 7.69687
    axis -74.5596 -85.4655 -103.546 xyz
    dof rx ry rz
  end
  begin
    id 19
    name lThighDummy
    direction -0.236086 -0.0385456 -0.970967
    length 4.99155
    axis 0 0 0 xyz
  end
  begin
    id 20
    name lThigh
    direction -0.993968 0.0148998 -0.108653
    length 13.572
    axis -91.4001 6.23768 179.141 xyz
    dof rx ry rz
  end
  begin
    id 21
    name lShin
    direction -0.992341 0.0904576 -0.0841193
    length 18.5862
    axis -91.4558 4.82538 174.792 xyz
    dof rx ry rz
  end
  begin
    id 22
    name lFoot
    direction 0.0209381 -0.999771 -0.00453005
    length 8.44474
    axis 4.86759 0.259522 -88.8001 xyz
    dof rx ry rz
  end
  begin
    id 23
    name rThighDummy
    direction -0.236086 -0.0385456 0.970967
    length 4.99155
    axis 0 0 0 xyz
  end
  begin
    id 24
    name rThigh
    direction -0.993968 0.0148995 0.108653
    length 13.5721
    axis -89.7059 -6.2377 179.141 xyz
    dof rx ry rz
  end
  begin
    id 25
    name rShin
    direction -0.9925 0.0899962 0.0827255
    length 18.6716
    axis -89.2745 -4.74775 174.819 xyz
    dof rx ry rz
  end
  begin
    id 26
    name rFoot
    direction 0.0301721 -0.999545 9.70865e-005
    length 8.45013
    axis -2.50066e-005 -0.00555246 -88.271 xyz
    dof rx ry rz
  end
:hierarchy
  begin
    root abdomenDummy lThighDummy rThighDummy
    abdomenDummy abdomen
    abdomen chest
    chest neckDummyDummy lCollarDummy rCollarDummy
    neckDummyDummy neckDummy
    neckDummy neck
    neck head
    head figureHair
    lCollarDummy lCollar
    lCollar lShldr
    lShldr lForeArm
    lForeArm lHand
    rCollarDummy rCollar
    rCollar rShldr
    rShldr rForeArm
    rForeArm rHand
    lThighDummy lThigh
    lThigh lShin
    lShin lFoot
    rThighDummy rThigh
    rThigh rShin
    rShin rFoot
  end

:SAMPLES-PER-SECOND 25
:FULLY-SPECIFIED
:DEGREES
1573
root  6.22145 37.9174 -5.22219 174.022 13.0238 99.731
abdomen  1.23027 -8.86934 -9.84379
chest  2.96018 9.02803 2.50502
neckDummy  9.09964e-021 0 8.72668e-016
neck  9.48513 13.6441 2.27106
head  5.01649 1.20595 -14.3507
figureHair  0 1.51661e-021 -9.5315e-016
lCollar  -5.15695e-016 -6.42944e-016 -7.59357e-014
lShldr  5.71169 17.9645 -70.6632
lForeArm  23.5754 -30.0175 -0.180926
lHand  0.254698 0.195082 5.2986
rCollar  1.7976e-016 -5.12864e-014 1.62755e-015
rShldr  -17.7736 59.5961 -8.87922
rForeArm  -0.348335 0.765489 42.8597
rHand  0.186186 -21.8284 3.61071
lThigh  -23.4758 -38.9317 8.22505
lShin  158.098 79.5937 167.261
lFoot  -2.72054 0.344312 -10.7797
rThigh  14.3123 -16.3953 -8.09108
rShin  4.90174 1.1942 6.12278
rFoot  0.828175 -0.318732 -2.87953
1574
root  6.0535 37.9411 -5.0842 173.194 13.9605 101.424
abdomen  0.915035 -9.8621 -6.78116
chest  2.61065 9.10137 2.34847
neckDummy  9.09964e-021 0 8.72668e-016
neck  10.2314 14.4747 2.365
head  5.45074 1.62902 -14.4133
figureHair  0 1.51661e-021 -9.5315e-016
lCollar  -5.15695e-016 -6.42944e-016 -7.59357e-014
lShldr  6.5267 17.607 -70.0085
lForeArm  22.5949 -29.3381 -0.213928
lHand  0.254698 0.195082 5.2986
rCollar  1.7976e-016 -5.12864e-014 1.62755e-015
rShldr  -21.2159 59.218 -12.8172
rForeArm  -1.38196 0.685787 47.3822
rHand  0.30397 -21.9171 3.05769
lThigh  -20.8011 -35.7587 7.55824
lShin  168.911 68.819 177.878
lFoot  -1.94244 -0.02895 -15.9827
rThigh  14.6898 -18.2109 -8.82721
rShin  3.73054 1.03026 5.82531
rFoot  1.56838 -0.382074 -2.76549
1575
root  5.86803 37.9038 -4.94512 172.201 14.2374 102.859
abdomen  0.404044 -11.4913 -3.78488
chest  2.19131 9.11509 1.78745
neckDummy  9.09964e-021 0 8.72668e-016
neck  11.0017 14.9109 2.73711
head  5.95327 2.46145 -14.6404
figureHair  0 1.51661e-021 -9.5315e-016
lCollar  -5.15695e-016 -6.42944e-016 -7.59357e-014
lShldr  7.23843 17.2311 -69.6031
lForeArm  22.344 -29.0659 -0.22698
lHand  0.254698 0.195082 5.2986
rCollar  1.7976e-016 -5.12864e-014 1.62755e-015
rShldr  -23.5776 58.4779 -15.6371
rForeArm  -2.12543 0.646224 49.517
rHand  0.333263 -21.5095 2.88434
lThigh  -17.6345 -29.9267 6.70799
lShin  169.757 61.9733 178.776
lFoot  -0.530068 -0.030073 -21.9755
rThigh  14.6389 -20.0085 -8.83019
rShin  2.72312 1.3797 5.55239
rFoot  1.88218 -0.395559 -2.52141
1576
root  5.72377 37.81 -4.81002 171.833 13.8187 104.354
abdomen  -0.679566 -13.6742 -0.338571
chest  1.59833 9.09547 0.659864
neckDummy  9.09964e-021 0 8.72668e-016
neck  11.5266 14.8146 2.805
head  6.38458 3.7099 -15.1032
figureHair  0 1.51661e-021 -9.5315e-016
lCollar  -5.15695e-016 -6.42944e-016 -7.59357e-014
lShldr  8.22471 16.6669 -69.2395
lForeArm  22.491 -28.5426 -0.251894
lHand  0.254698 0.195082 5.2986
rCollar  1.7976e-016 -5.12864e-014 1.62755e-015
rShldr  -24.912 57.51 -18.0058
rForeArm  -1.94774 0.645874 49.5076
rHand  0.376388 -21.3258 2.659
lThigh  -13.7185 -22.126 5.53944
lShin  170.672 61.0028 178.896
lFoot  1.13977 0.180692 -30.8455
rThigh  14.4593 -21.4803 -8.42506
rShin  2.37543 1.57146 5.58967
rFoot  2.50922 -0.429053 -2.04795
1577
root  5.72232 37.7272 -4.66598 172.8 13.0511 106.22
abdomen  -2.38978 -15.7457 3.26528
chest  0.870493 8.73957 -0.384137
neckDummy  9.09964e-021 0 8.72668e-016
neck  11.7403 14.6812 2.46257
head  6.57725 4.93151 -15.6822
figureHair  0 1.51661e-021 -9.5315e-016
lCollar  -5.15695e-016 -6.42944e-016 -7.59357e-014
lShldr  9.47202 16.1387 -68.9377
lForeArm  22.7112 -27.8151 -0.286266
lHand  0.254698 0.195082 5.2986
rCollar  1.7976e-016 -5.12864e-014 1.62755e-015
rShldr  -26.1036 56.2505 -21.3555
rForeArm  -1.13848 0.660332 48.7022
rHand  0.438716 -21.4082 2.36529
lThigh  -9.40092 -13.3094 4.21569
lShin  171.954 67.3694 178.341
lFoot  -1.43361 -0.389082 -43.8943
rThigh  14.2361 -22.9916 -8.0056
rShin  3.19679 1.5201 5.69586
rFoot  2.66917 -0.433519 -1.85107
1578
root  5.75963 37.7132 -4.55067 174.421 12.4132 107.858
abdomen  -3.9465 -16.7653 6.13801
chest  0.0847644 7.55343 -0.928498
neckDummy  9.09964e-021 0 8.72668e-016
neck  11.9054 14.8016 2.70375
head  6.58373 5.67109 -16.2411
figureHair  0 1.51661e-021 -9.5315e-016
lCollar  -5.15695e-016 -6.42944e-016 -7.59357e-014
lShldr  10.7894 15.7071 -68.6936
lForeArm  23.1307 -27.0895 -0.319996
lHand  0.254698 0.195082 5.2986
rCollar  1.7976e-016 -5.12864e-014 1.62755e-015
rShldr  -26.7411 54.7431 -24.9907
rForeArm  0.0206931 0.680378 47.5926
rHand  0.42785 -21.3887 2.41581
lThigh  -6.21775 -5.30685 3.80102
lShin  166.33 79.0284 170.634
lFoot  -7.24157 -2.71624 -54.1634
rThigh  14.1067 -24.2165 -7.91979
rShin  4.53093 1.40497 5.68024
rFoot  2.27971 -0.39549 -1.89194
1579
root  5.8515 37.6915 -4.44508 175.836 12.008 108.917
abdomen  -4.86857 -17.3675 7.9283
chest  -0.345098 6.39626 -1.42042
neckDummy  9.09964e-021 0 8.72668e-016
neck  12.049 14.884 3.82994
head  6.46619 5.9772 -16.8879
figureHair  0 1.51661e-021 -9.5315e-016
lCollar  -5.15695e-016 -6.42944e-016 -7.59357e-014
lShldr  12.7115 15.0688 -68.0745
lForeArm  23.304 -25.5496 -0.390045
lHand  0.254698 0.195082 5.2986
rCollar  1.7976e-016 -5.12864e-014 1.62755e-015
rShldr  -26.7248 53.2782 -27.927
rForeArm  1.14313 0.709831 45.9518
rHand  0.388479 -21.4299 2.61042
lThigh  -5.43401 1.17219 4.56846
lShin  -4.09587 86.385 -0.814024
lFoot  -11.1696 -4.24516 -54.4097
rThigh  14.3774 -25.3588 -8.29606
rShin  5.42543 2.00915 5.6727
rFoot  2.27844 -0.379894 -1.65086
1580
root  5.99089 37.6203 -4.31684 176.812 11.7843 109.621
abdomen  -5.52721 -18.4753 9.12475
chest  -0.275751 6.22824 -1.96541
neckDummy  9.09964e-021 0 8.72668e-016
neck  12.0357 14.726 4.87683
head  6.28836 6.14193 -17.5965
figureHair  0 1.51661e-021 -9.5315e-016
lCollar  -5.15695e-016 -6.42944e-016 -7.59357e-014
lShldr  15.007 14.8591 -66.9733
lForeArm  22.4766 -22.9816 -0.503148
lHand  0.254698 0.195082 5.2986
rCollar  1.7976e-016 -5.12864e-014 1.62755e-015
rShldr  -26.4375 52.258 -29.5281
rForeArm  1.42888 0.756896 43.2639
rHand  0.368688 -21.5645 2.71898
lThigh  -7.23773 7.32343 5.65829
lShin  3.11253 67.0471 7.05891
lFoot  -11.417 -3.64297 -48.1361
rThigh  14.9358 -26.8841 -8.91958
rShin  5.89392 3.54488 5.65664
rFoot  2.32768 -0.359081 -1.22797
1581
root  5.85148 37.583 -4.25178 177.661 11.8517 110.364
abdomen  -5.86255 -19.1997 10.1336
chest  -0.215301 6.20025 -1.8827
neckDummy  9.09964e-021 0 8.72668e-016
neck  11.8379 14.4393 5.40176
head  6.08378 6.14904 -18.0626
figureHair  0 1.51661e-021 -9.5315e-016
lCollar  -5.15695e-016 -6.42944e-016 -7.59357e-014
lShldr  16.4177 15.9388 -65.9454
lForeArm  20.8439 -20.4001 -0.609349
lHand  0.254698 0.195082 5.2986
rCollar  1.7976e-016 -5.12864e-014 1.62755e-015
rShldr  -25.5077 51.8239 -29.2212
rForeArm  1.26803 0.821581 39.3961
rHand  0.302636 -21.3868 3.02253
lThigh  -11.1101 13.322 5.64848
lShin  1.50486 43.5792 2.56203
lFoot  -9.75637 -2.4398 -40.8512
rThigh  15.5433 -28.2263 -9.6599
rShin  6.21809 5.30423 5.5518
rFoot  1.44616 -0.232484 -0.811394
1582
root  5.59255 37.6131 -4.24292 178.987 12.3068 111.165
abdomen  -5.64332 -18.7547 10.2467
chest  -0.309824 5.61388 -1.12552
neckDummy  9.09964e-021 0 8.72668e-016
neck  11.5431 14.3152 6.37235
head  5.7259 5.67472 -18.3542
figureHair  0 1.51661e-021 -9.5315e-016
lCollar  -5.15695e-016 -6.42944e-016 -7.59357e-014
lShldr  16.6176 17.5823 -65.3275
lForeArm  19.1322 -18.3659 -0.75013
lHand  0.254698 0.195082 5.2986
rCollar  1.7976e-016 -5.12864e-014 1.62755e-015
rShldr  -23.5333 51.988 -27.5006
rForeArm  1.61318 0.885687 35.3356
rHand  0.201947 -21.0538 3.48788
lThigh  -15.3666 16.9069 4.21696
lShin  8.45053 22.4921 1.6209
lFoot  -9.9737 -1.46036 -29.5217
rThigh  16.4097 -29.3183 -10.8927
rShin  6.81246 7.06645 5.37789
rFoot  0.0307854 -0.0478318 -0.528654
